# xmcd
#
# Track frame offsets:
#	150
#	15347
#	26449
#	38492
#	49375
#	64973
#	72543
#	84704
#	89224
#	111987
#	120236
#	133427
#	148703
#	154351
#	170074
#
# Disc length: 2495 seconds
#
# Revision: 0
# Processed by: cddbd v1.5.2PL0 Copyright (c) Steve Scherf et al.
# Submitted via: EZCDAudioConverter 7.0.0.1
#
DISCID=df09bd0f
DTITLE=Bene - Włoska
DYEAR=2007
DGENRE=
TTITLE0=FENESTA CHE LUCIVE
TTITLE1=MARECHIARE
TTITLE2=FUNICULA
TTITLE3=LA DANZA NAPULETANA
TTITLE4=MARE
TTITLE5=NAPULETANA
TTITLE6=LUCIA
TTITLE7=ITALIANA
TTITLE8=I TE VURRIA VASSA
TTITLE9=TIRITOMBA
TTITLE10=SPAGNOLA
TTITLE11=NOTTE D' ESTA
TTITLE12=LA DANZA ITALIANA
TTITLE13=TE VOGLIO BENE
TTITLE14=CIAO
EXTD=
EXTT0=
EXTT1=
EXTT2=
EXTT3=
EXTT4=
EXTT5=
EXTT6=
EXTT7=
EXTT8=
EXTT9=
EXTT10=
EXTT11=
EXTT12=
EXTT13=
EXTT14=
PLAYORDER=
